{"asset":{"version":"2.0","generator":"Blockbench 5.0.7 glTF exporter"},"scenes":[{"nodes":[0,1,2,3,4],"name":"blockbench_export"}],"scene":0,"nodes":[{"translation":[1,0.125,0],"name":"plane","mesh":0},{"rotation":[0.5187732581605224,0.8549118706729459,-1.8943049898088678e-16,6.6189835763454335e-16],"translation":[-0.5865778649815693,0.06956182292636172,-1.6653345369377348e-16],"name":"connectorleft","mesh":1},{"rotation":[-6.123233995736766e-17,-1,-6.123233995736766e-17,-7.285838599102591e-17],"translation":[-1.109375,0.125,0],"name":"plane","mesh":2},{"translation":[-0.057718576654379294,0.014123645852722293,0],"name":"plane","mesh":3},{"rotation":[0,0,0.5187732581605214,0.8549118706729466],"translation":[0.47114071167281035,0.06956182292636115,0],"name":"connectorleft","mesh":4}],"bufferViews":[{"buffer":0,"byteOffset":0,"byteLength":48,"target":34962,"byteStride":12},{"buffer":0,"byteOffset":48,"byteLength":48,"target":34962,"byteStride":12},{"buffer":0,"byteOffset":96,"byteLength":32,"target":34962,"byteStride":8},{"buffer":0,"byteOffset":128,"byteLength":12,"target":34963},{"buffer":0,"byteOffset":140,"byteLength":48,"target":34962,"byteStride":12},{"buffer":0,"byteOffset":188,"byteLength":48,"target":34962,"byteStride":12},{"buffer":0,"byteOffset":236,"byteLength":32,"target":34962,"byteStride":8},{"buffer":0,"byteOffset":268,"byteLength":12,"target":34963},{"buffer":0,"byteOffset":280,"byteLength":48,"target":34962,"byteStride":12},{"buffer":0,"byteOffset":328,"byteLength":48,"target":34962,"byteStride":12},{"buffer":0,"byteOffset":376,"byteLength":32,"target":34962,"byteStride":8},{"buffer":0,"byteOffset":408,"byteLength":12,"target":34963},{"buffer":0,"byteOffset":420,"byteLength":48,"target":34962,"byteStride":12},{"buffer":0,"byteOffset":468,"byteLength":48,"target":34962,"byteStride":12},{"buffer":0,"byteOffset":516,"byteLength":32,"target":34962,"byteStride":8},{"buffer":0,"byteOffset":548,"byteLength":12,"target":34963},{"buffer":0,"byteOffset":560,"byteLength":48,"target":34962,"byteStride":12},{"buffer":0,"byteOffset":608,"byteLength":48,"target":34962,"byteStride":12},{"buffer":0,"byteOffset":656,"byteLength":32,"target":34962,"byteStride":8},{"buffer":0,"byteOffset":688,"byteLength":12,"target":34963}],"buffers":[{"byteLength":700,"uri":"data:application/octet-stream;base64,"}],"accessors":[{"bufferView":0,"componentType":5126,"count":4,"max":[0.5,0,0.5],"min":[-0.5,0,-0.5],"type":"VEC3"},{"bufferView":1,"componentType":5126,"count":4,"max":[0,1,0],"min":[0,1,0],"type":"VEC3"},{"bufferView":2,"componentType":5126,"count":4,"max":[1,1],"min":[0,0],"type":"VEC2"},{"bufferView":3,"componentType":5123,"count":6,"max":[3],"min":[0],"type":"SCALAR"},{"bufferView":4,"componentType":5126,"count":4,"max":[0.0625,0,0.5],"min":[-0.0625,0,-0.5],"type":"VEC3"},{"bufferView":5,"componentType":5126,"count":4,"max":[0,1,0],"min":[0,1,0],"type":"VEC3"},{"bufferView":6,"componentType":5126,"count":4,"max":[0.25,0.25],"min":[0,0],"type":"VEC2"},{"bufferView":7,"componentType":5123,"count":6,"max":[3],"min":[0],"type":"SCALAR"},{"bufferView":8,"componentType":5126,"count":4,"max":[0.5,0,0.5],"min":[-0.5,0,-0.5],"type":"VEC3"},{"bufferView":9,"componentType":5126,"count":4,"max":[0,1,0],"min":[0,1,0],"type":"VEC3"},{"bufferView":10,"componentType":5126,"count":4,"max":[1,1],"min":[0,0],"type":"VEC2"},{"bufferView":11,"componentType":5123,"count":6,"max":[3],"min":[0],"type":"SCALAR"},{"bufferView":12,"componentType":5126,"count":4,"max":[0.5,0,0.5],"min":[-0.5,0,-0.5],"type":"VEC3"},{"bufferView":13,"componentType":5126,"count":4,"max":[0,1,0],"min":[0,1,0],"type":"VEC3"},{"bufferView":14,"componentType":5126,"count":4,"max":[1,1],"min":[0,0],"type":"VEC2"},{"bufferView":15,"componentType":5123,"count":6,"max":[3],"min":[0],"type":"SCALAR"},{"bufferView":16,"componentType":5126,"count":4,"max":[0.0625,0,0.5],"min":[-0.0625,0,-0.5],"type":"VEC3"},{"bufferView":17,"componentType":5126,"count":4,"max":[0,1,0],"min":[0,1,0],"type":"VEC3"},{"bufferView":18,"componentType":5126,"count":4,"max":[0.25,0.25],"min":[0,0],"type":"VEC2"},{"bufferView":19,"componentType":5123,"count":6,"max":[3],"min":[0],"type":"SCALAR"}],"materials":[{"pbrMetallicRoughness":{"metallicFactor":0,"roughnessFactor":1},"alphaMode":"MASK","alphaCutoff":0.05,"doubleSided":true},{"pbrMetallicRoughness":{"metallicFactor":0,"roughnessFactor":1},"alphaMode":"MASK","alphaCutoff":0.05,"doubleSided":true}],"meshes":[{"primitives":[{"mode":4,"attributes":{"POSITION":0,"NORMAL":1,"TEXCOORD_0":2},"indices":3,"material":0}]},{"primitives":[{"mode":4,"attributes":{"POSITION":4,"NORMAL":5,"TEXCOORD_0":6},"indices":7,"material":1}]},{"primitives":[{"mode":4,"attributes":{"POSITION":8,"NORMAL":9,"TEXCOORD_0":10},"indices":11,"material":0}]},{"primitives":[{"mode":4,"attributes":{"POSITION":12,"NORMAL":13,"TEXCOORD_0":14},"indices":15,"material":0}]},{"primitives":[{"mode":4,"attributes":{"POSITION":16,"NORMAL":17,"TEXCOORD_0":18},"indices":19,"material":1}]}]}